<mxfile host="app.diagrams.net" modified="2023-05-23T16:29:25.920Z" agent="Mozilla/5.0 (Windows NT 10.0; Win64; x64) AppleWebKit/537.36 (KHTML, like Gecko) Chrome/113.0.0.0 Safari/537.36" etag="b5QFaYiYE-pFxJLjaFBo" version="21.3.3" type="device">
  <diagram name="Страница 1" id="YgUfaKez4OH0CnSGYcgf">
    <mxGraphModel dx="1790" dy="983" grid="0" gridSize="10" guides="1" tooltips="1" connect="1" arrows="1" fold="1" page="1" pageScale="1" pageWidth="1654" pageHeight="1169" background="none" math="0" shadow="0">
      <root>
        <mxCell id="0" />
        <mxCell id="1" parent="0" />
        <mxCell id="64x0n7IiM4_NmmOd-yNO-16" value="" style="rounded=0;whiteSpace=wrap;html=1;" parent="1" vertex="1">
          <mxGeometry x="326" y="703" width="187" height="162" as="geometry" />
        </mxCell>
        <mxCell id="64x0n7IiM4_NmmOd-yNO-1" value="" style="rounded=0;whiteSpace=wrap;html=1;" parent="1" vertex="1">
          <mxGeometry x="326" y="228" width="438" height="453" as="geometry" />
        </mxCell>
        <mxCell id="64x0n7IiM4_NmmOd-yNO-2" value="" style="rounded=0;whiteSpace=wrap;html=1;" parent="1" vertex="1">
          <mxGeometry x="336" y="262" width="418" height="409" as="geometry" />
        </mxCell>
        <mxCell id="64x0n7IiM4_NmmOd-yNO-7" value="&lt;font face=&quot;Times New Roman&quot; style=&quot;font-size: 16px;&quot;&gt;MS SQL Server 2019&lt;/font&gt;" style="shape=cylinder3;whiteSpace=wrap;html=1;boundedLbl=1;backgroundOutline=1;size=15;" parent="1" vertex="1">
          <mxGeometry x="337" y="752" width="165" height="90" as="geometry" />
        </mxCell>
        <mxCell id="64x0n7IiM4_NmmOd-yNO-10" value="" style="endArrow=classic;html=1;rounded=0;entryX=0.5;entryY=1;entryDx=0;entryDy=0;exitX=0.5;exitY=0;exitDx=0;exitDy=0;" parent="1" source="cO95kbMEwtRn7BLUnHoI-26" target="cO95kbMEwtRn7BLUnHoI-25" edge="1">
          <mxGeometry width="50" height="50" relative="1" as="geometry">
            <mxPoint x="432.34000000000003" y="528" as="sourcePoint" />
            <mxPoint x="432.34000000000003" y="488" as="targetPoint" />
          </mxGeometry>
        </mxCell>
        <mxCell id="64x0n7IiM4_NmmOd-yNO-11" value="" style="endArrow=classic;html=1;rounded=0;exitX=1;exitY=0.5;exitDx=0;exitDy=0;edgeStyle=orthogonalEdgeStyle;entryX=0.5;entryY=1;entryDx=0;entryDy=0;" parent="1" target="cO95kbMEwtRn7BLUnHoI-24" edge="1">
          <mxGeometry width="50" height="50" relative="1" as="geometry">
            <mxPoint x="516" y="556" as="sourcePoint" />
            <mxPoint x="671" y="512" as="targetPoint" />
          </mxGeometry>
        </mxCell>
        <mxCell id="64x0n7IiM4_NmmOd-yNO-12" value="" style="endArrow=classic;html=1;rounded=0;entryX=1;entryY=0.5;entryDx=0;entryDy=0;exitX=0.5;exitY=0;exitDx=0;exitDy=0;edgeStyle=orthogonalEdgeStyle;" parent="1" source="cO95kbMEwtRn7BLUnHoI-24" target="cO95kbMEwtRn7BLUnHoI-21" edge="1">
          <mxGeometry width="50" height="50" relative="1" as="geometry">
            <mxPoint x="671" y="381" as="sourcePoint" />
            <mxPoint x="516" y="296" as="targetPoint" />
            <Array as="points">
              <mxPoint x="646" y="349" />
              <mxPoint x="517" y="349" />
            </Array>
          </mxGeometry>
        </mxCell>
        <mxCell id="64x0n7IiM4_NmmOd-yNO-13" value="&lt;font style=&quot;font-size: 16px;&quot;&gt;Веб-сервер Kestrel&lt;/font&gt;" style="text;html=1;strokeColor=none;fillColor=none;align=center;verticalAlign=middle;whiteSpace=wrap;rounded=0;fontFamily=Times New Roman;fontSize=16;" parent="1" vertex="1">
          <mxGeometry x="451" y="268" width="190" height="30" as="geometry" />
        </mxCell>
        <mxCell id="64x0n7IiM4_NmmOd-yNO-14" value="&lt;span style=&quot;font-size: 16px;&quot;&gt;&lt;font style=&quot;font-size: 16px;&quot;&gt;ASP.NET 6, EF 6, JWT Auth, FluentValidation 11.5.2, &lt;br style=&quot;font-size: 16px;&quot;&gt;Hangfire 1.8.1, OData 8.2, Serilog 6.0.1, CsvHelper 30.0.1&lt;/font&gt;&lt;/span&gt;" style="text;html=1;strokeColor=none;fillColor=none;align=center;verticalAlign=middle;whiteSpace=wrap;rounded=0;fontFamily=Times New Roman;fontSize=16;" parent="1" vertex="1">
          <mxGeometry x="346" y="633" width="400" height="30" as="geometry" />
        </mxCell>
        <mxCell id="64x0n7IiM4_NmmOd-yNO-15" value="&lt;font style=&quot;font-size: 16px;&quot;&gt;Docker контейнер&lt;/font&gt;" style="text;html=1;strokeColor=none;fillColor=none;align=center;verticalAlign=middle;whiteSpace=wrap;rounded=0;fontFamily=Times New Roman;fontSize=16;" parent="1" vertex="1">
          <mxGeometry x="478.5" y="231" width="133" height="28" as="geometry" />
        </mxCell>
        <mxCell id="64x0n7IiM4_NmmOd-yNO-17" value="&lt;font style=&quot;font-size: 16px;&quot;&gt;Docker контейнер&lt;/font&gt;" style="text;html=1;strokeColor=none;fillColor=none;align=center;verticalAlign=middle;whiteSpace=wrap;rounded=0;fontFamily=Times New Roman;fontSize=16;" parent="1" vertex="1">
          <mxGeometry x="358" y="715" width="138.5" height="30" as="geometry" />
        </mxCell>
        <mxCell id="64x0n7IiM4_NmmOd-yNO-19" value="&lt;font style=&quot;font-size: 16px;&quot;&gt;TCP&lt;/font&gt;" style="text;html=1;strokeColor=none;fillColor=none;align=center;verticalAlign=middle;whiteSpace=wrap;rounded=0;fontFamily=Times New Roman;fontSize=16;" parent="1" vertex="1">
          <mxGeometry x="540" y="722" width="44" height="30" as="geometry" />
        </mxCell>
        <mxCell id="64x0n7IiM4_NmmOd-yNO-20" value="" style="rounded=0;whiteSpace=wrap;html=1;" parent="1" vertex="1">
          <mxGeometry x="862" y="228" width="466" height="636" as="geometry" />
        </mxCell>
        <mxCell id="64x0n7IiM4_NmmOd-yNO-21" value="&lt;font style=&quot;font-size: 16px;&quot;&gt;Docker контейнер&lt;/font&gt;" style="text;html=1;strokeColor=none;fillColor=none;align=center;verticalAlign=middle;whiteSpace=wrap;rounded=0;fontSize=16;fontFamily=Times New Roman;" parent="1" vertex="1">
          <mxGeometry x="988" y="231" width="190" height="30" as="geometry" />
        </mxCell>
        <mxCell id="64x0n7IiM4_NmmOd-yNO-22" value="" style="rounded=0;whiteSpace=wrap;html=1;" parent="1" vertex="1">
          <mxGeometry x="872" y="261" width="445" height="593" as="geometry" />
        </mxCell>
        <mxCell id="64x0n7IiM4_NmmOd-yNO-23" value="&lt;font style=&quot;font-size: 16px;&quot;&gt;Приложение Angular&lt;/font&gt;" style="text;html=1;strokeColor=none;fillColor=none;align=center;verticalAlign=middle;whiteSpace=wrap;rounded=0;fontFamily=Times New Roman;fontSize=16;" parent="1" vertex="1">
          <mxGeometry x="993" y="267" width="190" height="30" as="geometry" />
        </mxCell>
        <mxCell id="64x0n7IiM4_NmmOd-yNO-28" value="" style="rounded=0;whiteSpace=wrap;html=1;" parent="1" vertex="1">
          <mxGeometry x="1114" y="555.5" width="180" height="253" as="geometry" />
        </mxCell>
        <mxCell id="64x0n7IiM4_NmmOd-yNO-29" value="" style="endArrow=classic;html=1;rounded=0;entryX=0.5;entryY=1;entryDx=0;entryDy=0;exitX=0.25;exitY=0;exitDx=0;exitDy=0;edgeStyle=orthogonalEdgeStyle;" parent="1" source="cO95kbMEwtRn7BLUnHoI-33" target="cO95kbMEwtRn7BLUnHoI-29" edge="1">
          <mxGeometry width="50" height="50" relative="1" as="geometry">
            <mxPoint x="934" y="503" as="sourcePoint" />
            <mxPoint x="914" y="418" as="targetPoint" />
          </mxGeometry>
        </mxCell>
        <mxCell id="64x0n7IiM4_NmmOd-yNO-30" value="" style="endArrow=classic;html=1;rounded=0;entryX=0.5;entryY=1;entryDx=0;entryDy=0;exitX=0.75;exitY=0;exitDx=0;exitDy=0;edgeStyle=orthogonalEdgeStyle;" parent="1" source="cO95kbMEwtRn7BLUnHoI-33" target="cO95kbMEwtRn7BLUnHoI-32" edge="1">
          <mxGeometry width="50" height="50" relative="1" as="geometry">
            <mxPoint x="1254.48" y="513.76" as="sourcePoint" />
            <mxPoint x="1284.48" y="428.76" as="targetPoint" />
          </mxGeometry>
        </mxCell>
        <mxCell id="64x0n7IiM4_NmmOd-yNO-31" value="" style="endArrow=classic;html=1;rounded=0;entryX=0.5;entryY=0;entryDx=0;entryDy=0;edgeStyle=orthogonalEdgeStyle;exitX=1;exitY=0.5;exitDx=0;exitDy=0;" parent="1" source="cO95kbMEwtRn7BLUnHoI-33" target="64x0n7IiM4_NmmOd-yNO-28" edge="1">
          <mxGeometry width="50" height="50" relative="1" as="geometry">
            <mxPoint x="1153" y="488" as="sourcePoint" />
            <mxPoint x="1237" y="304" as="targetPoint" />
          </mxGeometry>
        </mxCell>
        <mxCell id="64x0n7IiM4_NmmOd-yNO-32" value="" style="endArrow=classic;html=1;rounded=0;entryX=0.5;entryY=0;entryDx=0;entryDy=0;exitX=0;exitY=0.5;exitDx=0;exitDy=0;edgeStyle=orthogonalEdgeStyle;" parent="1" source="cO95kbMEwtRn7BLUnHoI-33" target="cO95kbMEwtRn7BLUnHoI-34" edge="1">
          <mxGeometry width="50" height="50" relative="1" as="geometry">
            <mxPoint x="988.5" y="464" as="sourcePoint" />
            <mxPoint x="921" y="519" as="targetPoint" />
          </mxGeometry>
        </mxCell>
        <mxCell id="64x0n7IiM4_NmmOd-yNO-34" value="&lt;font style=&quot;font-size: 16px;&quot;&gt;Сервис&lt;/font&gt;" style="rounded=0;whiteSpace=wrap;html=1;fontFamily=Times New Roman;fontSize=16;" parent="1" vertex="1">
          <mxGeometry x="1140" y="673.25" width="130" height="42.5" as="geometry" />
        </mxCell>
        <mxCell id="64x0n7IiM4_NmmOd-yNO-37" value="" style="endArrow=classic;html=1;rounded=0;exitX=0.5;exitY=1;exitDx=0;exitDy=0;edgeStyle=orthogonalEdgeStyle;entryX=0.5;entryY=0;entryDx=0;entryDy=0;" parent="1" source="Dw_NH2WDBEIp38I7gVZT-5" target="64x0n7IiM4_NmmOd-yNO-34" edge="1">
          <mxGeometry width="50" height="50" relative="1" as="geometry">
            <mxPoint x="1346" y="614.75" as="sourcePoint" />
            <mxPoint x="1277" y="614" as="targetPoint" />
          </mxGeometry>
        </mxCell>
        <mxCell id="64x0n7IiM4_NmmOd-yNO-38" value="" style="endArrow=classic;html=1;rounded=0;exitX=0.5;exitY=1;exitDx=0;exitDy=0;edgeStyle=orthogonalEdgeStyle;entryX=0.5;entryY=0;entryDx=0;entryDy=0;" parent="1" source="64x0n7IiM4_NmmOd-yNO-34" target="cO95kbMEwtRn7BLUnHoI-40" edge="1">
          <mxGeometry width="50" height="50" relative="1" as="geometry">
            <mxPoint x="1287" y="597" as="sourcePoint" />
            <mxPoint x="1277" y="707.75" as="targetPoint" />
          </mxGeometry>
        </mxCell>
        <mxCell id="64x0n7IiM4_NmmOd-yNO-40" value="&lt;span style=&quot;font-size: 16px;&quot;&gt;&lt;font style=&quot;font-size: 16px;&quot;&gt;Angular CLI 15.0.2, Node 18.12.1, npm 8.19.2, rxjs 7.5.7, &lt;br style=&quot;font-size: 16px;&quot;&gt;typescript 4.8.4, angular material 15.0.1&amp;nbsp;&lt;/font&gt;&lt;/span&gt;" style="text;html=1;strokeColor=none;fillColor=none;align=center;verticalAlign=middle;whiteSpace=wrap;rounded=0;fontFamily=Times New Roman;fontSize=16;" parent="1" vertex="1">
          <mxGeometry x="885" y="817" width="396" height="30" as="geometry" />
        </mxCell>
        <mxCell id="64x0n7IiM4_NmmOd-yNO-45" value="&lt;span style=&quot;font-size: 16px;&quot;&gt;&lt;font style=&quot;font-size: 16px;&quot;&gt;HTTP&lt;/font&gt;&lt;/span&gt;" style="text;html=1;strokeColor=none;fillColor=none;align=center;verticalAlign=middle;whiteSpace=wrap;rounded=0;fontSize=16;fontFamily=Times New Roman;" parent="1" vertex="1">
          <mxGeometry x="689" y="698" width="50" height="21" as="geometry" />
        </mxCell>
        <mxCell id="64x0n7IiM4_NmmOd-yNO-46" value="&lt;span style=&quot;font-size: 16px;&quot;&gt;&lt;font style=&quot;font-size: 16px;&quot;&gt;HTTP&lt;/font&gt;&lt;/span&gt;" style="text;html=1;strokeColor=none;fillColor=none;align=center;verticalAlign=middle;whiteSpace=wrap;rounded=0;fontFamily=Times New Roman;fontSize=16;" parent="1" vertex="1">
          <mxGeometry x="788" y="782" width="50" height="20" as="geometry" />
        </mxCell>
        <mxCell id="64x0n7IiM4_NmmOd-yNO-48" value="&lt;span style=&quot;font-size: 16px;&quot;&gt;&lt;font style=&quot;font-size: 16px;&quot;&gt;HTTP&lt;/font&gt;&lt;/span&gt;" style="text;html=1;strokeColor=none;fillColor=none;align=center;verticalAlign=middle;whiteSpace=wrap;rounded=0;fontSize=16;fontFamily=Times New Roman;" parent="1" vertex="1">
          <mxGeometry x="776" y="415" width="70" height="30" as="geometry" />
        </mxCell>
        <mxCell id="fWmRGBT9L08BWm6hRDDx-1" value="" style="endArrow=classic;startArrow=classic;html=1;rounded=0;exitX=1;exitY=0.5;exitDx=0;exitDy=0;entryX=0;entryY=0.356;entryDx=0;entryDy=0;entryPerimeter=0;" parent="1" source="64x0n7IiM4_NmmOd-yNO-1" target="64x0n7IiM4_NmmOd-yNO-20" edge="1">
          <mxGeometry width="50" height="50" relative="1" as="geometry">
            <mxPoint x="798" y="523" as="sourcePoint" />
            <mxPoint x="823" y="498" as="targetPoint" />
          </mxGeometry>
        </mxCell>
        <mxCell id="fWmRGBT9L08BWm6hRDDx-2" value="" style="endArrow=classic;startArrow=classic;html=1;rounded=0;exitX=1;exitY=0.5;exitDx=0;exitDy=0;entryX=0;entryY=0.901;entryDx=0;entryDy=0;entryPerimeter=0;" parent="1" source="cO95kbMEwtRn7BLUnHoI-36" target="64x0n7IiM4_NmmOd-yNO-20" edge="1">
          <mxGeometry width="50" height="50" relative="1" as="geometry">
            <mxPoint x="806" y="831" as="sourcePoint" />
            <mxPoint x="836" y="875" as="targetPoint" />
          </mxGeometry>
        </mxCell>
        <mxCell id="fWmRGBT9L08BWm6hRDDx-3" value="" style="endArrow=classic;startArrow=classic;html=1;rounded=0;exitX=0.827;exitY=1;exitDx=0;exitDy=0;entryX=0.5;entryY=0;entryDx=0;entryDy=0;exitPerimeter=0;" parent="1" source="64x0n7IiM4_NmmOd-yNO-1" target="cO95kbMEwtRn7BLUnHoI-36" edge="1">
          <mxGeometry width="50" height="50" relative="1" as="geometry">
            <mxPoint x="630" y="705" as="sourcePoint" />
            <mxPoint x="546" y="741" as="targetPoint" />
          </mxGeometry>
        </mxCell>
        <mxCell id="fWmRGBT9L08BWm6hRDDx-4" value="" style="endArrow=classic;startArrow=classic;html=1;rounded=0;exitX=1;exitY=0.5;exitDx=0;exitDy=0;entryX=0.5;entryY=1;entryDx=0;entryDy=0;edgeStyle=orthogonalEdgeStyle;" parent="1" source="64x0n7IiM4_NmmOd-yNO-16" target="64x0n7IiM4_NmmOd-yNO-1" edge="1">
          <mxGeometry width="50" height="50" relative="1" as="geometry">
            <mxPoint x="109" y="445" as="sourcePoint" />
            <mxPoint x="593" y="799" as="targetPoint" />
          </mxGeometry>
        </mxCell>
        <mxCell id="cO95kbMEwtRn7BLUnHoI-21" value="&lt;font style=&quot;font-size: 16px;&quot;&gt;WMS.Database&lt;/font&gt;" style="rounded=0;whiteSpace=wrap;html=1;fontFamily=Times New Roman;fontSize=16;" parent="1" vertex="1">
          <mxGeometry x="349" y="310" width="168" height="76" as="geometry" />
        </mxCell>
        <mxCell id="cO95kbMEwtRn7BLUnHoI-24" value="&lt;font style=&quot;font-size: 16px;&quot;&gt;WMS.Database.Migrations&lt;/font&gt;" style="rounded=0;whiteSpace=wrap;html=1;fontFamily=Times New Roman;fontSize=16;" parent="1" vertex="1">
          <mxGeometry x="550" y="421" width="192" height="76" as="geometry" />
        </mxCell>
        <mxCell id="cO95kbMEwtRn7BLUnHoI-25" value="&lt;font style=&quot;font-size: 16px;&quot;&gt;WMS.Core&lt;/font&gt;" style="rounded=0;whiteSpace=wrap;html=1;fontFamily=Times New Roman;fontSize=16;" parent="1" vertex="1">
          <mxGeometry x="349" y="421" width="169" height="76" as="geometry" />
        </mxCell>
        <mxCell id="cO95kbMEwtRn7BLUnHoI-26" value="&lt;font style=&quot;font-size: 16px;&quot;&gt;WMS.WebApi&lt;/font&gt;" style="rounded=0;whiteSpace=wrap;html=1;fontFamily=Times New Roman;fontSize=16;" parent="1" vertex="1">
          <mxGeometry x="349" y="533" width="169" height="76" as="geometry" />
        </mxCell>
        <mxCell id="cO95kbMEwtRn7BLUnHoI-29" value="&lt;font style=&quot;font-size: 16px;&quot;&gt;Общий модуль&lt;/font&gt;" style="rounded=0;whiteSpace=wrap;html=1;fontSize=16;fontFamily=Times New Roman;" parent="1" vertex="1">
          <mxGeometry x="898" y="314.5" width="136" height="67" as="geometry" />
        </mxCell>
        <mxCell id="cO95kbMEwtRn7BLUnHoI-32" value="&lt;span style=&quot;font-size: 16px;&quot;&gt;Core модуль&lt;/span&gt;" style="rounded=0;whiteSpace=wrap;html=1;fontSize=16;fontFamily=Times New Roman;" parent="1" vertex="1">
          <mxGeometry x="1114" y="314.5" width="129" height="67" as="geometry" />
        </mxCell>
        <mxCell id="cO95kbMEwtRn7BLUnHoI-33" value="&lt;font style=&quot;font-size: 16px;&quot;&gt;Корневой модуль&lt;/font&gt;" style="rounded=0;whiteSpace=wrap;html=1;fontFamily=Times New Roman;fontSize=16;" parent="1" vertex="1">
          <mxGeometry x="1011" y="436" width="135" height="71" as="geometry" />
        </mxCell>
        <mxCell id="cO95kbMEwtRn7BLUnHoI-34" value="&lt;font style=&quot;font-size: 16px;&quot;&gt;Модуль маршрутизации&lt;/font&gt;" style="rounded=0;whiteSpace=wrap;html=1;fontFamily=Times New Roman;fontSize=16;" parent="1" vertex="1">
          <mxGeometry x="898" y="555.5" width="135" height="71" as="geometry" />
        </mxCell>
        <mxCell id="cO95kbMEwtRn7BLUnHoI-36" value="&lt;font style=&quot;font-size: 16px;&quot;&gt;Веб-браузер&lt;/font&gt;" style="rounded=0;whiteSpace=wrap;html=1;fontFamily=Times New Roman;fontSize=16;" parent="1" vertex="1">
          <mxGeometry x="613" y="737" width="151" height="128" as="geometry" />
        </mxCell>
        <mxCell id="cO95kbMEwtRn7BLUnHoI-37" value="&lt;span style=&quot;font-size: 16px;&quot;&gt;&lt;font face=&quot;Times New Roman&quot;&gt;Google Chrome&lt;/font&gt;&lt;/span&gt;" style="text;html=1;strokeColor=none;fillColor=none;align=center;verticalAlign=middle;whiteSpace=wrap;rounded=0;" parent="1" vertex="1">
          <mxGeometry x="656" y="837" width="108" height="27" as="geometry" />
        </mxCell>
        <mxCell id="cO95kbMEwtRn7BLUnHoI-40" value="&lt;font style=&quot;font-size: 16px;&quot;&gt;Сервис данных&lt;/font&gt;" style="rounded=0;whiteSpace=wrap;html=1;fontFamily=Times New Roman;fontSize=16;" parent="1" vertex="1">
          <mxGeometry x="1140" y="757.25" width="130" height="42.5" as="geometry" />
        </mxCell>
        <mxCell id="Dw_NH2WDBEIp38I7gVZT-1" value="" style="endArrow=classic;html=1;rounded=0;entryX=0.5;entryY=1;entryDx=0;entryDy=0;exitX=0.5;exitY=0;exitDx=0;exitDy=0;" edge="1" parent="1" source="cO95kbMEwtRn7BLUnHoI-25" target="cO95kbMEwtRn7BLUnHoI-21">
          <mxGeometry width="50" height="50" relative="1" as="geometry">
            <mxPoint x="433.30999999999995" y="419" as="sourcePoint" />
            <mxPoint x="433.30999999999995" y="383" as="targetPoint" />
          </mxGeometry>
        </mxCell>
        <mxCell id="Dw_NH2WDBEIp38I7gVZT-4" value="&lt;font style=&quot;font-size: 16px;&quot;&gt;Модуль бизнес логики&lt;/font&gt;" style="text;html=1;strokeColor=none;fillColor=none;align=center;verticalAlign=middle;whiteSpace=wrap;rounded=0;fontFamily=Times New Roman;fontSize=16;" vertex="1" parent="1">
          <mxGeometry x="1125" y="558.5" width="160" height="30" as="geometry" />
        </mxCell>
        <mxCell id="Dw_NH2WDBEIp38I7gVZT-5" value="&lt;font style=&quot;font-size: 16px;&quot;&gt;Компонента&lt;/font&gt;" style="rounded=0;whiteSpace=wrap;html=1;fontFamily=Times New Roman;fontSize=16;" vertex="1" parent="1">
          <mxGeometry x="1140" y="593.5" width="130" height="42.5" as="geometry" />
        </mxCell>
      </root>
    </mxGraphModel>
  </diagram>
</mxfile>
